<svg width="19" height="18" viewBox="0 0 19 18" fill="none" xmlns="http://www.w3.org/2000/svg">
<path fill-rule="evenodd" clip-rule="evenodd" d="M8.99526 1.65829C9.05282 1.47575 9.16707 1.31632 9.32143 1.20315C9.47578 1.08998 9.66219 1.02896 9.85359 1.02896C10.045 1.02896 10.2314 1.08998 10.3858 1.20315C10.5401 1.31632 10.6544 1.47575 10.7119 1.65829L12.2619 6.42495H17.2619C17.4602 6.41746 17.6554 6.47507 17.8178 6.58899C17.9802 6.7029 18.1009 6.86686 18.1614 7.0558C18.2218 7.24474 18.2188 7.44829 18.1527 7.63533C18.0865 7.82238 17.961 7.98263 17.7953 8.09162L13.7369 11.0333L15.2869 15.8083C15.3482 15.9902 15.3498 16.1869 15.2913 16.3697C15.2329 16.5526 15.1175 16.7119 14.9621 16.8245C14.8067 16.9371 14.6193 16.9971 14.4274 16.9957C14.2355 16.9943 14.049 16.9315 13.8953 16.8166L9.82859 13.8416L5.77026 16.7916C5.61651 16.9065 5.43006 16.9693 5.23813 16.9707C5.04619 16.9721 4.85883 16.9121 4.7034 16.7995C4.54797 16.6869 4.43261 16.5276 4.37418 16.3447C4.31574 16.1619 4.31729 15.9652 4.37859 15.7833L5.92859 11.0083L1.87026 8.06662C1.70449 7.95763 1.57897 7.79738 1.51286 7.61033C1.44675 7.42329 1.44369 7.21975 1.50415 7.0308C1.56461 6.84186 1.68527 6.6779 1.84769 6.56399C2.0101 6.45007 2.20535 6.39246 2.40359 6.39995H7.40359L8.99526 1.65829Z" stroke="#D1D1D1" stroke-width="1.5" stroke-linecap="round" stroke-linejoin="round"/>
</svg>
